<svg width="73" height="36" viewBox="0 0 73 36" fill="none" xmlns="http://www.w3.org/2000/svg">
<rect width="73" height="36" rx="4" fill="black"/>
<path d="M24.352 23H17.056V12.28H18.864V21.4H24.352V23ZM28.3177 23.16C26.0778 23.16 24.5418 21.528 24.5418 19.112C24.5418 16.68 26.0778 15.048 28.3177 15.048C30.5898 15.048 32.1258 16.68 32.1258 19.112C32.1258 21.528 30.5898 23.16 28.3177 23.16ZM28.3338 21.672C29.5018 21.672 30.3018 20.904 30.3018 19.112C30.3018 17.304 29.5018 16.536 28.3338 16.536C27.1818 16.536 26.3818 17.304 26.3818 19.112C26.3818 20.904 27.1818 21.672 28.3338 21.672ZM36.785 20.664C36.177 20.664 35.617 20.552 35.153 20.328C35.009 20.568 34.833 20.872 34.833 21.144C34.833 21.544 35.041 21.752 35.761 21.752H38.273C39.825 21.752 40.673 22.376 40.673 23.544C40.673 25.016 39.233 26.136 36.401 26.136C34.225 26.136 32.961 25.448 32.961 24.472C32.961 23.736 33.665 23.336 34.417 23.16C33.857 23 33.489 22.632 33.489 22.04C33.489 21.336 34.097 20.648 34.817 20.152C34.033 19.672 33.553 18.856 33.553 17.864C33.553 16.216 34.865 15.048 36.785 15.048C37.281 15.048 37.729 15.128 38.129 15.272L38.513 13.4L40.241 13.992L38.785 15.592C39.553 16.088 40.001 16.888 40.001 17.864C40.001 19.512 38.705 20.664 36.785 20.664ZM36.785 19.384C37.633 19.384 38.305 18.84 38.305 17.864C38.305 16.888 37.633 16.344 36.785 16.344C35.937 16.344 35.265 16.888 35.265 17.864C35.265 18.84 35.937 19.384 36.785 19.384ZM36.481 24.792C38.161 24.792 39.057 24.424 39.057 23.768C39.057 23.352 38.721 23.176 38.033 23.176H34.785C34.609 23.352 34.417 23.608 34.417 23.88C34.417 24.456 35.057 24.792 36.481 24.792ZM47.0671 23H45.2591V12.28H47.0671V23ZM50.9548 23H49.1628V15.208H50.9548V17.336C51.2428 16.104 52.0428 15.048 53.5948 15.048C55.1148 15.048 56.0428 15.96 56.0428 17.576V23H54.2348V18.12C54.2348 17.16 53.9148 16.504 52.7148 16.504C51.4028 16.504 50.9548 17.352 50.9548 18.632V23Z" fill="white"/>
</svg>