<svg width="60" height="15" viewBox="0 0 60 15" fill="none" xmlns="http://www.w3.org/2000/svg">
<path d="M4.224 11.16C1.984 11.16 0.448 9.528 0.448 7.112C0.448 4.68 1.984 3.048 4.224 3.048C6.496 3.048 8.032 4.68 8.032 7.112C8.032 9.528 6.496 11.16 4.224 11.16ZM4.24 9.672C5.408 9.672 6.208 8.904 6.208 7.112C6.208 5.304 5.408 4.536 4.24 4.536C3.088 4.536 2.288 5.304 2.288 7.112C2.288 8.904 3.088 9.672 4.24 9.672ZM11.361 11H9.569V3.208H11.361V5.416C11.649 4.168 12.433 3.048 13.825 3.048C14.801 3.048 15.521 3.688 15.521 4.84C15.521 5.592 15.313 6.152 15.169 6.392H13.329C13.585 6.136 13.825 5.624 13.825 5.176C13.825 4.744 13.617 4.392 13.089 4.392C12.193 4.392 11.361 5.416 11.361 6.712V11ZM27.4145 11H20.1185V0.28H21.9265V9.4H27.4145V11ZM31.3802 11.16C29.1403 11.16 27.6043 9.528 27.6043 7.112C27.6043 4.68 29.1403 3.048 31.3802 3.048C33.6523 3.048 35.1883 4.68 35.1883 7.112C35.1883 9.528 33.6523 11.16 31.3802 11.16ZM31.3963 9.672C32.5643 9.672 33.3643 8.904 33.3643 7.112C33.3643 5.304 32.5643 4.536 31.3963 4.536C30.2443 4.536 29.4443 5.304 29.4443 7.112C29.4443 8.904 30.2443 9.672 31.3963 9.672ZM39.8475 8.664C39.2395 8.664 38.6795 8.552 38.2155 8.328C38.0715 8.568 37.8955 8.872 37.8955 9.144C37.8955 9.544 38.1035 9.752 38.8235 9.752H41.3355C42.8875 9.752 43.7355 10.376 43.7355 11.544C43.7355 13.016 42.2955 14.136 39.4635 14.136C37.2875 14.136 36.0235 13.448 36.0235 12.472C36.0235 11.736 36.7275 11.336 37.4795 11.16C36.9195 11 36.5515 10.632 36.5515 10.04C36.5515 9.336 37.1595 8.648 37.8795 8.152C37.0955 7.672 36.6155 6.856 36.6155 5.864C36.6155 4.216 37.9275 3.048 39.8475 3.048C40.3435 3.048 40.7915 3.128 41.1915 3.272L41.5755 1.4L43.3035 1.992L41.8475 3.592C42.6155 4.088 43.0635 4.888 43.0635 5.864C43.0635 7.512 41.7675 8.664 39.8475 8.664ZM39.8475 7.384C40.6955 7.384 41.3675 6.84 41.3675 5.864C41.3675 4.888 40.6955 4.344 39.8475 4.344C38.9995 4.344 38.3275 4.888 38.3275 5.864C38.3275 6.84 38.9995 7.384 39.8475 7.384ZM39.5435 12.792C41.2235 12.792 42.1195 12.424 42.1195 11.768C42.1195 11.352 41.7835 11.176 41.0955 11.176H37.8475C37.6715 11.352 37.4795 11.608 37.4795 11.88C37.4795 12.456 38.1195 12.792 39.5435 12.792ZM50.1296 11H48.3216V0.28H50.1296V11ZM54.0173 11H52.2253V3.208H54.0173V5.336C54.3053 4.104 55.1053 3.048 56.6573 3.048C58.1773 3.048 59.1053 3.96 59.1053 5.576V11H57.2973V6.12C57.2973 5.16 56.9773 4.504 55.7773 4.504C54.4653 4.504 54.0173 5.352 54.0173 6.632V11Z" fill="black" fill-opacity="0.5"/>
</svg>