<svg width="72" height="15" viewBox="0 0 72 15" fill="none" xmlns="http://www.w3.org/2000/svg">
<path d="M4.224 11.16C1.984 11.16 0.448 9.528 0.448 7.112C0.448 4.68 1.984 3.048 4.224 3.048C6.496 3.048 8.032 4.68 8.032 7.112C8.032 9.528 6.496 11.16 4.224 11.16ZM4.24 9.672C5.408 9.672 6.208 8.904 6.208 7.112C6.208 5.304 5.408 4.536 4.24 4.536C3.088 4.536 2.288 5.304 2.288 7.112C2.288 8.904 3.088 9.672 4.24 9.672ZM11.361 11H9.569V3.208H11.361V5.416C11.649 4.168 12.433 3.048 13.825 3.048C14.801 3.048 15.521 3.688 15.521 4.84C15.521 5.592 15.313 6.152 15.169 6.392H13.329C13.585 6.136 13.825 5.624 13.825 5.176C13.825 4.744 13.617 4.392 13.089 4.392C12.193 4.392 11.361 5.416 11.361 6.712V11ZM24.5025 11.16C22.4545 11.16 20.5825 10.424 19.7505 8.616L21.0305 7.32C21.6065 8.888 23.2225 9.496 24.5345 9.496C25.6065 9.496 26.4705 9.112 26.4705 8.136C26.4705 7.096 25.6065 6.808 24.2145 6.504L23.2065 6.28C21.6865 5.96 20.0705 5.272 20.0705 3.24C20.0705 1.224 21.8145 0.136 23.8305 0.136C25.7985 0.136 27.3665 0.952 28.1345 2.424L26.7745 3.72C26.1825 2.392 25.0305 1.816 23.7185 1.816C22.6945 1.816 21.9585 2.296 21.9585 3.112C21.9585 4.056 22.6945 4.392 23.8625 4.68L25.0625 4.968C26.7745 5.384 28.3105 6.056 28.3105 8.104C28.3105 10.04 26.6785 11.16 24.5025 11.16ZM31.7048 2.104H29.9128V0.28H31.7048V2.104ZM31.7048 11H29.9128V3.208H31.7048V11ZM36.8163 8.664C36.2083 8.664 35.6483 8.552 35.1843 8.328C35.0403 8.568 34.8643 8.872 34.8643 9.144C34.8643 9.544 35.0723 9.752 35.7923 9.752H38.3043C39.8563 9.752 40.7043 10.376 40.7043 11.544C40.7043 13.016 39.2643 14.136 36.4323 14.136C34.2563 14.136 32.9923 13.448 32.9923 12.472C32.9923 11.736 33.6963 11.336 34.4483 11.16C33.8883 11 33.5203 10.632 33.5203 10.04C33.5203 9.336 34.1283 8.648 34.8483 8.152C34.0643 7.672 33.5843 6.856 33.5843 5.864C33.5843 4.216 34.8963 3.048 36.8163 3.048C37.3123 3.048 37.7603 3.128 38.1603 3.272L38.5443 1.4L40.2723 1.992L38.8163 3.592C39.5843 4.088 40.0323 4.888 40.0323 5.864C40.0323 7.512 38.7363 8.664 36.8163 8.664ZM36.8163 7.384C37.6643 7.384 38.3363 6.84 38.3363 5.864C38.3363 4.888 37.6643 4.344 36.8163 4.344C35.9683 4.344 35.2963 4.888 35.2963 5.864C35.2963 6.84 35.9683 7.384 36.8163 7.384ZM36.5123 12.792C38.1923 12.792 39.0883 12.424 39.0883 11.768C39.0883 11.352 38.7523 11.176 38.0643 11.176H34.8163C34.6403 11.352 34.4483 11.608 34.4483 11.88C34.4483 12.456 35.0883 12.792 36.5123 12.792ZM43.5641 11H41.7721V3.208H43.5641V5.336C43.8521 4.104 44.6521 3.048 46.2041 3.048C47.7241 3.048 48.6521 3.96 48.6521 5.576V11H46.8441V6.12C46.8441 5.16 46.5241 4.504 45.3241 4.504C44.0121 4.504 43.5641 5.352 43.5641 6.632V11ZM58.059 11.16C55.195 11.16 53.803 9.672 53.803 6.424V0.28H55.595V6.44C55.595 8.568 56.315 9.432 58.075 9.432C59.867 9.432 60.555 8.568 60.555 6.44V0.28H62.347V6.424C62.347 9.672 60.987 11.16 58.059 11.16ZM66.0173 13.976H64.2253V3.208H66.0173V5.288C66.2733 4.072 66.9613 3.032 68.5133 3.032C70.4013 3.032 71.6173 4.584 71.6173 7.096C71.6173 9.608 70.4013 11.16 68.4813 11.16C66.9293 11.16 66.2733 10.12 66.0173 8.92V13.976ZM66.0173 7.576C66.0173 8.856 66.5453 9.704 67.8093 9.704C68.9293 9.704 69.7773 8.856 69.7773 7.096C69.7773 5.336 68.9293 4.488 67.8093 4.488C66.5453 4.488 66.0173 5.336 66.0173 6.616V7.576Z" fill="black" fill-opacity="0.5"/>
</svg>