<svg width="128" height="36" viewBox="0 0 128 36" fill="none" xmlns="http://www.w3.org/2000/svg">
<rect width="128" height="36" rx="4" fill="black"/>
<path d="M21.44 23.16C23.616 23.16 25.248 22.04 25.248 20.104C25.248 18.056 23.712 17.384 22 16.968L20.8 16.68C19.632 16.392 18.896 16.056 18.896 15.112C18.896 14.296 19.632 13.816 20.656 13.816C21.968 13.816 23.12 14.392 23.712 15.72L25.072 14.424C24.304 12.952 22.736 12.136 20.768 12.136C18.752 12.136 17.008 13.224 17.008 15.24C17.008 17.272 18.624 17.96 20.144 18.28L21.152 18.504C22.544 18.808 23.408 19.096 23.408 20.136C23.408 21.112 22.544 21.496 21.472 21.496C20.16 21.496 18.544 20.888 17.968 19.32L16.688 20.616C17.52 22.424 19.392 23.16 21.44 23.16ZM28.4983 23.16C30.1302 23.16 30.8823 21.944 31.1223 20.92V21.496C31.1223 22.616 31.7783 23 32.6103 23H33.7143V21.464H33.2183C32.9303 21.464 32.8023 21.352 32.8023 21V18.072C32.8023 16.152 31.7143 15.048 29.7783 15.048C28.0503 15.048 26.8343 15.944 26.2263 16.776L27.2983 18.056C27.7463 17.24 28.5623 16.632 29.6023 16.632C30.6743 16.632 31.0263 17.16 31.0903 17.944L28.4823 19.048C27.2183 19.544 26.4503 20.216 26.4503 21.32C26.4503 22.44 27.2183 23.16 28.4983 23.16ZM28.1783 21.048C28.1783 20.648 28.4503 20.376 29.1223 20.072L31.1223 19.176V20.008C31.1223 21.064 30.3223 21.768 29.1383 21.768C28.4823 21.768 28.1783 21.496 28.1783 21.048ZM38.9173 23L41.7013 15.208H39.7493L38.4373 19.448L37.8133 21.832L37.1733 19.448L35.8453 15.208H33.8613L36.6293 23H38.9173ZM45.7594 23.16C47.4874 23.16 48.5434 22.376 49.1354 21.48L48.0314 20.328C47.7434 20.984 47.1354 21.688 45.7754 21.688C44.5434 21.688 43.7274 20.936 43.6314 19.544H49.1994C49.2314 19.384 49.2634 19.048 49.2634 18.76C49.2634 16.6 47.9674 15.048 45.6314 15.048C43.4394 15.048 41.9194 16.664 41.9194 19.112C41.9194 21.544 43.4394 23.16 45.7594 23.16ZM45.6314 16.488C46.8154 16.488 47.5194 17.16 47.6474 18.392H43.6474C43.7914 17.128 44.5274 16.488 45.6314 16.488ZM57.57 23.16C59.522 23.16 60.754 22.056 61.17 20.584L59.554 19.784C59.378 20.904 58.818 21.656 57.602 21.656C56.37 21.656 55.618 20.744 55.618 19.112C55.618 17.464 56.37 16.552 57.602 16.552C58.802 16.552 59.378 17.304 59.554 18.424L61.17 17.624C60.754 16.152 59.522 15.048 57.57 15.048C55.25 15.048 53.794 16.68 53.794 19.112C53.794 21.528 55.25 23.16 57.57 23.16ZM64.3454 23V18.632C64.3454 17.352 64.7934 16.504 66.1054 16.504C67.3054 16.504 67.6254 17.16 67.6254 18.12V23H69.4334V17.576C69.4334 15.96 68.5054 15.048 66.9854 15.048C65.4334 15.048 64.6334 16.104 64.3454 17.336V12.28H62.5534V23H64.3454ZM72.9358 23.16C74.5677 23.16 75.3198 21.944 75.5598 20.92V21.496C75.5598 22.616 76.2158 23 77.0478 23H78.1518V21.464H77.6558C77.3678 21.464 77.2398 21.352 77.2398 21V18.072C77.2398 16.152 76.1518 15.048 74.2158 15.048C72.4878 15.048 71.2718 15.944 70.6638 16.776L71.7358 18.056C72.1838 17.24 72.9998 16.632 74.0398 16.632C75.1118 16.632 75.4638 17.16 75.5278 17.944L72.9198 19.048C71.6558 19.544 70.8878 20.216 70.8878 21.32C70.8878 22.44 71.6558 23.16 72.9358 23.16ZM72.6158 21.048C72.6158 20.648 72.8878 20.376 73.5598 20.072L75.5598 19.176V20.008C75.5598 21.064 74.7598 21.768 73.5758 21.768C72.9198 21.768 72.6158 21.496 72.6158 21.048ZM81.3141 23V18.632C81.3141 17.352 81.7621 16.504 83.0741 16.504C84.2741 16.504 84.5941 17.16 84.5941 18.12V23H86.4021V17.576C86.4021 15.96 85.4741 15.048 83.9541 15.048C82.4021 15.048 81.6021 16.104 81.3141 17.336V15.208H79.5221V23H81.3141ZM91.3475 20.664C93.2675 20.664 94.5635 19.512 94.5635 17.864C94.5635 16.888 94.1155 16.088 93.3475 15.592L94.8035 13.992L93.0755 13.4L92.6915 15.272C92.2915 15.128 91.8435 15.048 91.3475 15.048C89.4275 15.048 88.1155 16.216 88.1155 17.864C88.1155 18.856 88.5955 19.672 89.3795 20.152C88.6595 20.648 88.0515 21.336 88.0515 22.04C88.0515 22.632 88.4195 23 88.9795 23.16C88.2275 23.336 87.5235 23.736 87.5235 24.472C87.5235 25.448 88.7875 26.136 90.9635 26.136C93.7955 26.136 95.2355 25.016 95.2355 23.544C95.2355 22.376 94.3875 21.752 92.8355 21.752H90.3235C89.6035 21.752 89.3955 21.544 89.3955 21.144C89.3955 20.872 89.5715 20.568 89.7155 20.328C90.1795 20.552 90.7395 20.664 91.3475 20.664ZM91.3475 19.384C90.4995 19.384 89.8275 18.84 89.8275 17.864C89.8275 16.888 90.4995 16.344 91.3475 16.344C92.1955 16.344 92.8675 16.888 92.8675 17.864C92.8675 18.84 92.1955 19.384 91.3475 19.384ZM91.0435 24.792C89.6195 24.792 88.9795 24.456 88.9795 23.88C88.9795 23.608 89.1715 23.352 89.3475 23.176H92.5955C93.2835 23.176 93.6195 23.352 93.6195 23.768C93.6195 24.424 92.7235 24.792 91.0435 24.792ZM99.6656 23.16C101.394 23.16 102.45 22.376 103.042 21.48L101.938 20.328C101.65 20.984 101.042 21.688 99.6816 21.688C98.4496 21.688 97.6336 20.936 97.5376 19.544H103.106C103.138 19.384 103.17 19.048 103.17 18.76C103.17 16.6 101.874 15.048 99.5376 15.048C97.3456 15.048 95.8256 16.664 95.8256 19.112C95.8256 21.544 97.3456 23.16 99.6656 23.16ZM99.5376 16.488C100.722 16.488 101.426 17.16 101.554 18.392H97.5536C97.6976 17.128 98.4336 16.488 99.5376 16.488ZM107.816 23.16C109.464 23.16 110.76 22.392 110.76 20.856C110.76 19.736 110.12 19.032 108.376 18.584L107.432 18.344C106.376 18.072 105.96 17.864 105.96 17.304C105.96 16.776 106.424 16.488 107.112 16.488C108.12 16.488 108.952 17 109.496 17.864L110.552 16.744C110.072 15.864 108.904 15.064 107.24 15.064C105.448 15.064 104.28 15.944 104.28 17.4C104.28 18.824 105.416 19.368 106.648 19.656L107.688 19.912C108.552 20.12 109.144 20.312 109.144 20.888C109.144 21.448 108.648 21.72 107.88 21.72C106.488 21.72 105.528 20.92 105.096 20.136L104.04 21.256C104.632 22.488 106.152 23.16 107.816 23.16Z" fill="white"/>
</svg>