<svg width="86" height="36" viewBox="0 0 86 36" fill="none" xmlns="http://www.w3.org/2000/svg">
<rect width="86" height="36" rx="4" fill="black"/>
<path d="M21.44 23.16C19.392 23.16 17.52 22.424 16.688 20.616L17.968 19.32C18.544 20.888 20.16 21.496 21.472 21.496C22.544 21.496 23.408 21.112 23.408 20.136C23.408 19.096 22.544 18.808 21.152 18.504L20.144 18.28C18.624 17.96 17.008 17.272 17.008 15.24C17.008 13.224 18.752 12.136 20.768 12.136C22.736 12.136 24.304 12.952 25.072 14.424L23.712 15.72C23.12 14.392 21.968 13.816 20.656 13.816C19.632 13.816 18.896 14.296 18.896 15.112C18.896 16.056 19.632 16.392 20.8 16.68L22 16.968C23.712 17.384 25.248 18.056 25.248 20.104C25.248 22.04 23.616 23.16 21.44 23.16ZM28.6423 14.104H26.8503V12.28H28.6423V14.104ZM28.6423 23H26.8503V15.208H28.6423V23ZM33.7538 20.664C33.1458 20.664 32.5858 20.552 32.1218 20.328C31.9778 20.568 31.8018 20.872 31.8018 21.144C31.8018 21.544 32.0098 21.752 32.7298 21.752H35.2418C36.7938 21.752 37.6418 22.376 37.6418 23.544C37.6418 25.016 36.2018 26.136 33.3698 26.136C31.1938 26.136 29.9298 25.448 29.9298 24.472C29.9298 23.736 30.6338 23.336 31.3858 23.16C30.8258 23 30.4578 22.632 30.4578 22.04C30.4578 21.336 31.0658 20.648 31.7858 20.152C31.0018 19.672 30.5218 18.856 30.5218 17.864C30.5218 16.216 31.8338 15.048 33.7538 15.048C34.2498 15.048 34.6978 15.128 35.0978 15.272L35.4818 13.4L37.2098 13.992L35.7538 15.592C36.5218 16.088 36.9698 16.888 36.9698 17.864C36.9698 19.512 35.6738 20.664 33.7538 20.664ZM33.7538 19.384C34.6018 19.384 35.2738 18.84 35.2738 17.864C35.2738 16.888 34.6018 16.344 33.7538 16.344C32.9058 16.344 32.2338 16.888 32.2338 17.864C32.2338 18.84 32.9058 19.384 33.7538 19.384ZM33.4498 24.792C35.1298 24.792 36.0258 24.424 36.0258 23.768C36.0258 23.352 35.6898 23.176 35.0018 23.176H31.7538C31.5778 23.352 31.3858 23.608 31.3858 23.88C31.3858 24.456 32.0258 24.792 33.4498 24.792ZM40.5016 23H38.7096V15.208H40.5016V17.336C40.7896 16.104 41.5896 15.048 43.1416 15.048C44.6616 15.048 45.5896 15.96 45.5896 17.576V23H43.7816V18.12C43.7816 17.16 43.4616 16.504 42.2616 16.504C40.9496 16.504 40.5016 17.352 40.5016 18.632V23ZM54.9965 23.16C52.1325 23.16 50.7405 21.672 50.7405 18.424V12.28H52.5325V18.44C52.5325 20.568 53.2525 21.432 55.0125 21.432C56.8045 21.432 57.4925 20.568 57.4925 18.44V12.28H59.2845V18.424C59.2845 21.672 57.9245 23.16 54.9965 23.16ZM62.9548 25.976H61.1628V15.208H62.9548V17.288C63.2108 16.072 63.8988 15.032 65.4508 15.032C67.3388 15.032 68.5548 16.584 68.5548 19.096C68.5548 21.608 67.3388 23.16 65.4188 23.16C63.8668 23.16 63.2108 22.12 62.9548 20.92V25.976ZM62.9548 19.576C62.9548 20.856 63.4828 21.704 64.7468 21.704C65.8668 21.704 66.7148 20.856 66.7148 19.096C66.7148 17.336 65.8668 16.488 64.7468 16.488C63.4828 16.488 62.9548 17.336 62.9548 18.616V19.576Z" fill="white"/>
</svg>